<?xml version="1.0" encoding="UTF-8" standalone="no"?>
<!DOCTYPE svg PUBLIC "-//W3C//DTD SVG 1.1//EN" "http://www.w3.org/Graphics/SVG/1.1/DTD/svg11.dtd">
<svg xmlns="http://www.w3.org/2000/svg" version="1.1" viewBox="0.00 0.00 350.00 349.00">
<g stroke-width="2.00" fill="none" stroke-linecap="butt">
<path stroke="#666581" vector-effect="non-scaling-stroke" d="
  M 180.54 1.74
  Q 179.26 3.75 177.07 2.94
  Q 170.18 0.40 177.01 3.25
  Q 178.83 4.01 180.76 3.70
  A 1.47 1.46 -5.7 0 1 182.47 5.09
  Q 182.65 10.12 180.51 14.48
  C 178.79 17.98 182.02 20.87 178.54 23.87
  Q 178.13 24.23 178.14 24.77
  L 178.32 31.65
  Q 178.33 32.18 178.04 32.63
  Q 177.17 33.99 178.33 35.36
  Q 178.63 35.73 178.51 36.19
  C 178.07 37.83 179.86 40.48 178.06 41.15
  Q 177.62 41.31 177.50 41.77
  L 177.18 43.06
  Q 177.02 43.71 176.36 43.57
  Q 175.46 43.38 174.71 43.75"
/>
<path stroke="#b3b6c2" vector-effect="non-scaling-stroke" d="
  M 174.71 43.75
  L 167.08 28.51
  A 0.44 0.44 0.0 0 0 166.27 28.57
  L 155.19 62.82
  Q 155.02 63.36 155.59 63.33
  L 157.92 63.23
  Q 158.56 63.20 158.76 62.59
  L 161.17 54.88
  A 1.29 1.28 6.4 0 1 162.29 53.99
  L 175.26 53.07
  Q 175.74 53.03 175.96 53.47
  L 180.04 61.50"
/>
<path stroke="#666581" vector-effect="non-scaling-stroke" d="
  M 180.04 61.50
  Q 179.36 63.02 180.54 64.22
  Q 180.92 64.60 180.71 65.09
  Q 177.52 72.55 177.65 80.57
  C 177.73 85.93 175.30 91.13 175.12 96.82
  Q 175.10 97.41 174.71 97.85
  L 173.14 99.66
  Q 172.79 100.07 172.72 100.60
  Q 171.88 107.35 172.86 114.01
  C 173.40 117.71 169.85 120.42 171.90 124.21
  Q 172.16 124.69 172.05 125.23
  Q 171.65 127.11 172.99 128.30
  Q 173.40 128.67 173.08 129.11
  Q 172.03 130.60 172.26 132.41
  Q 172.33 132.90 172.07 133.33
  C 171.04 135.05 168.09 146.37 169.16 147.59
  Q 169.49 147.96 169.01 148.06
  Q 167.85 148.30 167.75 149.46"
/>
<path stroke="#b3b6c2" vector-effect="non-scaling-stroke" d="
  M 167.75 149.46
  Q 156.78 154.14 155.94 165.02
  C 155.45 171.45 159.53 180.07 161.96 186.25"
/>
<path stroke="#666581" vector-effect="non-scaling-stroke" d="
  M 161.96 186.25
  Q 158.93 186.71 158.91 189.58
  Q 158.91 190.05 158.44 190.10
  C 155.25 190.44 154.46 195.49 154.54 198.05
  C 154.67 201.99 153.39 205.62 153.57 209.50
  C 153.70 212.36 153.95 215.19 151.75 217.31
  Q 151.41 217.64 151.46 218.10
  Q 151.83 221.20 150.69 224.06
  Q 150.48 224.59 150.70 225.12
  Q 151.52 227.04 150.21 228.41
  Q 149.82 228.82 149.77 229.37
  L 149.44 232.66
  Q 149.39 233.18 149.79 233.52
  Q 151.02 234.57 150.46 235.87
  Q 150.26 236.33 150.28 236.83
  Q 150.45 239.94 151.64 242.69
  Q 151.83 243.13 151.68 243.59
  L 151.23 244.94
  Q 151.06 245.45 151.42 245.84
  C 153.33 247.98 152.40 250.21 152.72 252.30
  Q 153.68 258.57 152.39 264.89
  Q 152.29 265.41 152.67 265.79
  L 153.54 266.66
  Q 153.94 267.07 153.68 267.58
  Q 152.96 268.98 153.50 270.52
  Q 153.68 271.05 153.33 271.49
  Q 152.44 272.59 152.83 274.05
  Q 152.99 274.63 153.56 274.80
  L 155.57 275.38
  A 0.93 0.93 0.0 0 1 155.92 276.98
  Q 153.66 278.93 151.36 277.51
  Q 150.94 277.25 150.64 277.64
  C 148.63 280.33 149.35 283.64 149.23 286.67
  Q 149.22 286.85 149.06 286.95
  L 148.66 287.18
  Q 148.49 287.29 148.69 287.33
  Q 150.22 287.72 150.75 289.21"
/>
<path stroke="#b3b6c2" vector-effect="non-scaling-stroke" d="
  M 150.75 289.21
  C 149.89 289.08 149.47 289.14 149.25 290.04
  Q 146.96 299.19 144.62 308.38
  Q 144.48 308.94 143.91 308.82
  L 139.75 307.92
  Q 139.02 307.77 138.88 308.49
  L 138.72 309.34
  Q 138.62 309.87 139.14 310.00
  L 151.21 313.00"
/>
<path stroke="#666581" vector-effect="non-scaling-stroke" d="
  M 151.21 313.00
  Q 151.14 314.50 147.92 314.44
  A 0.19 0.19 0.0 0 0 147.76 314.72
  L 148.85 316.68
  Q 149.17 317.25 148.51 317.25
  L 147.79 317.25
  Q 147.35 317.25 147.23 317.67
  C 146.31 320.99 147.17 324.45 147.11 327.16
  C 147.04 330.88 148.27 337.14 147.08 340.40
  Q 146.92 340.83 147.12 341.23
  C 148.52 344.03 150.36 341.98 152.27 342.39
  Q 154.54 342.87 154.81 345.16"
/>
<path stroke="#67597b" vector-effect="non-scaling-stroke" d="
  M 230.00 10.54
  C 230.02 11.87 223.50 9.50 222.16 9.22
  A 1.26 1.26 0.0 0 0 220.76 10.99
  Q 221.92 13.45 221.65 16.07
  Q 221.60 16.57 221.24 16.93
  Q 218.73 19.42 220.41 22.55
  Q 220.65 22.99 220.44 23.43
  Q 219.46 25.54 219.64 27.92
  Q 219.68 28.37 219.42 28.74
  L 217.71 31.12
  Q 217.45 31.49 217.90 31.50
  Q 218.07 31.50 218.25 31.49
  Q 218.54 31.47 218.39 31.73
  Q 217.82 32.72 217.75 34.04"
/>
<path stroke="#b2afbe" vector-effect="non-scaling-stroke" d="
  M 217.75 34.04
  Q 216.82 33.55 216.19 35.71
  A 1.15 1.14 -73.4 0 0 216.95 37.12
  L 222.81 38.91
  Q 223.45 39.11 223.24 39.74
  L 214.64 66.38
  Q 214.47 66.90 214.90 67.23
  Q 216.11 68.17 217.41 67.86
  Q 217.96 67.72 218.01 67.16
  Q 218.16 65.72 218.75 64.71"
/>
<path stroke="#67597b" vector-effect="non-scaling-stroke" d="
  M 218.75 64.71
  L 218.85 68.60
  Q 218.86 69.09 219.31 69.28
  C 223.79 71.14 221.38 80.03 221.73 84.07
  C 222.34 91.08 221.41 98.21 221.52 106.50
  Q 221.53 107.01 221.30 107.47
  Q 220.50 109.10 221.23 111.49
  C 222.27 114.84 218.66 116.77 220.51 120.51
  Q 220.73 120.96 220.63 121.45
  C 220.03 124.37 220.86 127.02 220.62 129.79
  Q 220.37 132.72 220.61 135.67
  Q 220.66 136.24 221.17 136.50
  L 223.22 137.55
  Q 223.66 137.78 223.97 138.17
  L 226.59 141.59
  Q 226.91 142.00 226.95 142.52
  C 227.62 150.10 227.74 157.71 228.50 165.19
  C 228.79 168.10 227.96 170.27 227.25 173.01
  C 226.55 175.72 227.14 178.72 226.26 181.61
  C 225.38 184.48 225.42 187.30 222.76 189.76
  Q 222.36 190.12 222.44 190.66
  C 222.90 194.07 221.31 196.28 221.27 199.32
  C 221.19 206.39 220.46 212.85 220.97 219.96
  Q 221.11 221.85 220.37 224.57
  C 219.35 228.36 219.64 231.96 218.51 235.80
  C 217.51 239.21 218.09 242.78 216.97 245.75
  Q 215.75 249.02 213.66 251.88
  Q 213.36 252.30 213.33 252.81
  C 213.05 257.30 212.36 265.97 209.34 268.77
  Q 208.97 269.12 208.81 269.61
  Q 207.00 275.36 208.78 281.00
  C 209.93 284.61 212.99 285.75 210.76 290.59
  C 210.59 290.96 210.79 291.98 209.78 291.75
  Q 209.37 291.65 209.24 291.25
  C 208.66 289.50 206.98 291.11 206.96 292.25"
/>
<path stroke="#b2afbe" vector-effect="non-scaling-stroke" d="
  M 206.96 292.25
  L 203.15 289.38
  Q 202.65 289.00 202.81 289.60
  L 205.96 301.00"
/>
<path stroke="#67597b" vector-effect="non-scaling-stroke" d="
  M 205.96 301.00
  L 205.50 301.36
  Q 205.28 301.53 205.03 301.40
  L 204.40 301.06
  Q 203.73 300.70 203.61 301.45
  Q 203.25 303.72 204.42 305.79
  Q 204.69 306.28 204.32 306.70
  L 203.29 307.87
  Q 202.93 308.28 202.41 308.11
  C 200.29 307.40 198.21 304.82 196.56 308.25
  Q 194.41 312.70 195.29 316.74"
/>
<path stroke="#b2afbe" vector-effect="non-scaling-stroke" d="
  M 195.29 316.74
  C 194.15 317.15 193.20 318.34 194.09 319.39"
/>
<path stroke="#67597b" vector-effect="non-scaling-stroke" d="
  M 194.09 319.39
  Q 193.45 320.30 194.24 321.36
  Q 194.53 321.76 194.61 322.24
  Q 195.52 327.44 194.81 332.59
  Q 194.50 334.86 195.01 336.83
  C 195.57 339.00 197.30 343.75 193.92 343.55
  Q 193.46 343.53 193.20 343.91
  L 192.75 344.59
  Q 192.60 344.82 192.80 345.01
  L 193.04 345.25"
/>
<path stroke="#b2afbe" vector-effect="non-scaling-stroke" d="
  M 151.21 313.00
  Q 152.11 312.30 151.98 311.33
  Q 151.92 310.91 151.51 310.80
  L 147.24 309.68
  Q 146.64 309.53 146.80 308.92
  Q 149.17 300.07 151.28 291.27
  Q 151.68 289.62 150.75 289.21"
/>
<path stroke="#b2afbe" vector-effect="non-scaling-stroke" d="
  M 161.96 186.25
  C 167.20 206.55 196.21 204.84 197.49 184.37
  Q 197.72 180.65 195.54 174.49
  C 190.60 160.55 186.95 144.72 167.75 149.46"
/>
<path stroke="#b2afbe" vector-effect="non-scaling-stroke" d="
  M 180.04 61.50
  Q 181.52 61.75 182.83 61.24
  Q 183.39 61.03 183.12 60.48
  L 174.71 43.75"
/>
<path stroke="#705981" vector-effect="non-scaling-stroke" d="
  M 347.31 159.74
  Q 347.25 174.17 346.47 188.57
  Q 346.26 192.54 345.27 196.44
  Q 345.15 196.93 345.26 197.42
  Q 345.55 198.74 344.41 199.28
  Q 343.98 199.48 343.61 199.18
  L 343.14 198.80
  Q 342.74 198.47 342.27 198.71
  C 338.84 200.54 336.28 203.37 332.67 204.70
  C 328.96 206.06 327.41 209.45 323.86 210.90
  C 321.79 211.75 320.88 212.70 319.54 214.21
  Q 319.18 214.61 318.69 214.81
  Q 317.47 215.28 317.22 216.52
  Q 317.12 217.00 316.77 217.34
  L 315.17 218.85
  Q 314.79 219.21 314.27 219.24
  Q 311.94 219.41 310.93 221.48
  Q 310.64 222.07 311.30 222.01
  Q 312.02 221.95 312.74 222.02
  Q 314.41 222.21 312.74 222.44
  L 311.13 222.66
  Q 310.56 222.73 310.42 223.29
  L 309.68 226.23"
/>
<path stroke="#b4a9bc" vector-effect="non-scaling-stroke" d="
  M 309.68 226.23
  L 289.49 217.34
  Q 288.68 216.98 288.34 217.80
  C 288.00 218.60 287.57 219.05 288.67 219.54
  Q 292.59 221.31 296.65 222.94
  A 0.44 0.44 0.0 0 1 296.56 223.79
  C 294.05 224.23 284.44 225.17 283.96 228.00"
/>
<path stroke="#705981" vector-effect="non-scaling-stroke" d="
  M 283.96 228.00
  Q 282.90 228.27 282.72 229.26
  Q 282.64 229.68 282.22 229.75
  Q 281.84 229.81 281.65 229.51
  Q 281.57 229.39 281.55 229.54
  L 281.50 229.93
  Q 281.46 230.25 281.78 230.23
  Q 282.94 230.17 283.90 230.82
  Q 284.53 231.25 283.77 231.25
  L 281.56 231.25
  Q 281.14 231.25 280.85 231.54
  Q 278.31 234.02 276.89 237.25
  C 276.14 238.94 272.73 240.86 274.29 242.57
  Q 274.60 242.92 275.06 242.98
  L 277.53 243.32
  Q 278.01 243.39 277.98 243.88
  Q 277.93 244.58 277.04 245.00"
/>
<path stroke="#b4a9bc" vector-effect="non-scaling-stroke" d="
  M 277.04 245.00
  C 264.51 248.28 263.64 262.63 274.81 267.94"
/>
<path stroke="#705981" vector-effect="non-scaling-stroke" d="
  M 274.81 267.94
  Q 271.84 269.45 269.17 266.59
  Q 268.82 266.22 268.75 265.86
  Q 268.66 265.37 268.29 265.04
  Q 266.74 263.66 265.03 264.81
  Q 264.35 265.26 265.02 265.72
  Q 268.07 267.83 267.52 271.54"
/>
<path stroke="#b4a9bc" vector-effect="non-scaling-stroke" d="
  M 267.52 271.54
  Q 263.41 267.09 259.73 262.45
  C 258.95 261.48 257.97 261.37 257.44 262.63
  Q 257.24 263.12 257.57 263.52
  L 262.50 269.42
  Q 262.88 269.88 262.44 270.28
  L 257.17 275.06"
/>
<path stroke="#705981" vector-effect="non-scaling-stroke" d="
  M 257.17 275.06
  Q 256.19 273.86 257.18 272.59
  Q 257.48 272.20 257.64 271.74
  Q 258.10 270.39 257.24 269.46
  Q 256.76 268.93 256.10 269.22
  L 249.70 272.11
  Q 249.20 272.33 249.14 272.89
  L 248.71 276.89
  Q 248.66 277.35 248.85 277.77
  Q 249.33 278.81 248.46 280.00"
/>
<path stroke="#b4a9bc" vector-effect="non-scaling-stroke" d="
  M 248.46 280.00
  L 244.21 273.45
  Q 243.86 272.91 243.31 273.25
  L 242.32 273.87
  Q 241.89 274.14 242.17 274.57
  L 254.50 293.36"
/>
<path stroke="#705981" vector-effect="non-scaling-stroke" d="
  M 254.50 293.36
  Q 253.34 297.25 251.04 300.77
  Q 250.79 301.16 250.85 301.62
  L 251.03 302.93
  Q 251.10 303.46 250.58 303.55
  L 248.51 303.93
  Q 247.83 304.06 247.97 304.73
  L 248.35 306.67
  Q 248.45 307.17 248.19 307.61
  C 246.77 310.04 247.91 312.17 250.56 312.79
  Q 251.09 312.91 251.33 313.40
  C 252.62 316.02 250.85 320.19 248.86 321.80
  Q 248.45 322.13 248.40 322.64
  L 248.19 324.75
  Q 248.14 325.21 247.79 325.51
  L 244.29 328.57
  A 0.32 0.32 0.0 0 0 244.66 329.09
  C 244.73 329.05 252.53 325.35 249.97 328.17
  A 0.66 0.62 -80.3 0 1 249.73 328.35
  C 241.77 331.83 234.82 334.93 226.24 337.52
  Q 220.77 339.16 215.41 341.19"
/>
<path stroke="#b4a9bc" vector-effect="non-scaling-stroke" d="
  M 194.09 319.39
  Q 194.84 319.75 195.46 319.76
  Q 195.98 319.77 196.27 319.34
  Q 197.35 317.77 195.29 316.74"
/>
<path stroke="#b4a9bc" vector-effect="non-scaling-stroke" d="
  M 205.96 301.00
  L 208.96 311.60
  Q 209.14 312.20 209.74 312.03
  L 210.84 311.73
  Q 211.39 311.57 211.24 311.02
  L 207.13 296.35
  A 0.38 0.38 0.0 0 1 207.74 295.96
  L 223.73 309.22
  A 0.20 0.19 -78.7 0 0 224.04 309.01
  L 217.82 286.78
  Q 217.59 285.96 216.80 286.25
  L 215.96 286.56
  Q 215.44 286.75 215.59 287.29
  L 219.71 302.03
  A 0.33 0.33 0.0 0 1 219.18 302.38
  L 206.96 292.25"
/>
<path stroke="#b4a9bc" vector-effect="non-scaling-stroke" d="
  M 218.75 64.71
  L 226.46 40.71
  A 0.53 0.53 0.0 0 1 227.13 40.37
  L 233.54 42.41
  Q 234.13 42.60 234.30 42.00
  L 234.82 40.16
  Q 234.98 39.60 234.42 39.41
  L 217.75 34.04"
/>
<path stroke="#bbafc4" vector-effect="non-scaling-stroke" d="
  M 254.50 293.36
  Q 255.45 292.99 255.85 292.25
  Q 256.08 291.81 255.81 291.39
  L 248.46 280.00"
/>
<path stroke="#bbafc4" vector-effect="non-scaling-stroke" d="
  M 257.17 275.06
  Q 255.02 280.05 258.28 283.33
  C 263.56 288.61 269.05 282.90 273.21 279.27
  Q 273.60 278.93 273.27 278.53
  L 267.52 271.54"
/>
<path stroke="#bbafc4" vector-effect="non-scaling-stroke" d="
  M 274.81 267.94
  C 293.79 272.71 296.19 243.53 277.04 245.00"
/>
<path stroke="#bbafc4" vector-effect="non-scaling-stroke" d="
  M 283.96 228.00
  Q 283.79 228.22 283.77 228.42
  Q 283.70 228.99 284.27 228.86
  L 296.73 225.97
  Q 297.35 225.83 297.66 226.37
  L 304.00 237.35
  Q 304.28 237.84 304.67 237.44
  C 305.77 236.31 305.70 235.28 304.87 233.91
  Q 302.05 229.33 299.28 224.72
  A 0.32 0.32 0.0 0 1 299.68 224.26
  Q 303.68 226.01 307.61 227.87
  Q 309.17 228.60 309.68 226.23"
/>
<path stroke="#b3b6c2" vector-effect="non-scaling-stroke" d="
  M 133.59 39.16
  A 0.51 0.51 0.0 0 1 134.23 39.50
  L 142.38 66.94
  A 0.51 0.51 0.0 0 0 143.03 67.28
  L 145.20 66.55
  A 0.51 0.51 0.0 0 0 145.53 65.92
  L 137.42 38.62
  A 0.51 0.51 0.0 0 1 137.76 37.99
  L 144.32 36.07
  A 0.51 0.51 0.0 0 0 144.67 35.48
  L 144.24 33.45
  A 0.51 0.51 0.0 0 0 143.60 33.06
  L 126.09 38.19
  A 0.51 0.51 0.0 0 0 125.75 38.86
  L 126.51 40.85
  A 0.51 0.51 0.0 0 0 127.14 41.16
  L 133.59 39.16"
/>
<path stroke="#b3b6c2" vector-effect="non-scaling-stroke" d="
  M 97.19 81.59
  A 0.31 0.31 0.0 0 1 97.31 81.27
  L 108.64 73.16
  A 0.31 0.31 0.0 0 1 108.99 73.16
  L 116.66 78.21
  A 0.31 0.31 0.0 0 0 117.00 78.21
  L 119.47 76.51
  A 0.31 0.31 0.0 0 0 119.46 75.99
  L 88.60 56.43
  A 0.31 0.31 0.0 0 0 88.13 56.77
  L 96.39 92.43
  A 0.31 0.31 0.0 0 0 96.88 92.61
  L 99.28 90.78
  A 0.31 0.31 0.0 0 0 99.39 90.46
  L 97.19 81.59"
/>
<path stroke="#b3b6c2" vector-effect="non-scaling-stroke" d="
  M 64.26 94.34
  A 0.31 0.31 0.0 0 1 64.49 93.79
  L 94.38 96.92
  A 0.31 0.31 0.0 0 0 94.62 96.38
  L 69.46 74.57
  A 0.31 0.31 0.0 0 0 69.04 74.58
  L 67.14 76.48
  A 0.31 0.31 0.0 0 0 67.16 76.94
  L 84.45 91.96
  A 0.31 0.31 0.0 0 1 84.22 92.50
  L 54.48 89.44
  A 0.31 0.31 0.0 0 0 54.24 89.98
  L 79.26 111.70
  A 0.31 0.31 0.0 0 0 79.68 111.69
  L 81.59 109.79
  A 0.31 0.31 0.0 0 0 81.58 109.33
  L 64.26 94.34"
/>
<path stroke="#b3b6c2" vector-effect="non-scaling-stroke" d="
  M 75.2284 119.4981
  A 0.47 0.47 0.0 0 0 75.0710 118.8523
  L 48.0530 102.4251
  A 0.47 0.47 0.0 0 0 47.4072 102.5825
  L 46.1916 104.5819
  A 0.47 0.47 0.0 0 0 46.3490 105.2277
  L 73.3670 121.6549
  A 0.47 0.47 0.0 0 0 74.0128 121.4975
  L 75.2284 119.4981"
/>
<path stroke="#b3b6c2" vector-effect="non-scaling-stroke" d="
  M 55.01 130.37
  C 56.54 117.97 41.88 112.90 36.56 123.56
  Q 35.36 125.95 32.45 133.58
  Q 32.25 134.08 32.75 134.28
  L 61.70 146.10
  Q 62.27 146.33 62.55 145.78
  L 63.43 144.03
  Q 63.77 143.35 63.06 143.06
  L 52.17 138.62
  Q 51.62 138.40 51.86 137.85
  L 52.93 135.37
  Q 53.16 134.84 53.72 134.69
  Q 59.90 132.98 66.19 131.51
  C 68.81 130.90 69.70 129.64 70.09 127.12
  Q 70.15 126.73 69.77 126.83
  L 55.58 130.85
  Q 54.93 131.04 55.01 130.37"
/>
<path stroke="#b3b6c2" vector-effect="non-scaling-stroke" d="
  M 60.3361 155.0320
  A 0.59 0.59 0.0 0 0 59.8951 154.3236
  L 29.2928 147.2022
  A 0.59 0.59 0.0 0 0 28.5844 147.6432
  L 28.1039 149.7080
  A 0.59 0.59 0.0 0 0 28.5449 150.4164
  L 59.1472 157.5378
  A 0.59 0.59 0.0 0 0 59.8556 157.0968
  L 60.3361 155.0320"
/>
<path stroke="#b3b6c2" vector-effect="non-scaling-stroke" d="
  M 89.54 255.27
  A 11.70 11.70 0.0 0 0 77.84 243.57
  A 11.70 11.70 0.0 0 0 66.14 255.27
  A 11.70 11.70 0.0 0 0 77.84 266.97
  A 11.70 11.70 0.0 0 0 89.54 255.27"
/>
<path stroke="#b3b6c2" vector-effect="non-scaling-stroke" d="
  M 65.40 262.37
  A 1.43 1.43 0.0 0 0 63.97 260.94
  A 1.43 1.43 0.0 0 0 62.54 262.37
  A 1.43 1.43 0.0 0 0 63.97 263.80
  A 1.43 1.43 0.0 0 0 65.40 262.37"
/>
<path stroke="#b3b6c2" vector-effect="non-scaling-stroke" d="
  M 94.68 275.79
  Q 94.82 280.41 93.96 284.97
  C 93.63 286.72 94.10 287.91 95.72 288.57
  Q 96.20 288.76 96.24 288.25
  L 97.28 274.70
  Q 97.32 274.10 97.71 273.64
  L 103.78 266.46
  Q 104.22 265.93 103.73 265.44
  L 103.06 264.76
  Q 102.57 264.28 102.13 264.80
  L 95.74 272.27
  Q 95.41 272.66 94.92 272.78
  L 82.02 276.09
  Q 81.56 276.21 81.75 276.64
  C 82.91 279.38 89.73 276.61 94.06 275.35
  Q 94.66 275.17 94.68 275.79"
/>
<path stroke="#b3b6c2" vector-effect="non-scaling-stroke" d="
  M 69.21 267.17
  A 1.41 1.41 0.0 0 0 67.80 265.76
  A 1.41 1.41 0.0 0 0 66.39 267.17
  A 1.41 1.41 0.0 0 0 67.80 268.58
  A 1.41 1.41 0.0 0 0 69.21 267.17"
/>
<path stroke="#b3b6c2" vector-effect="non-scaling-stroke" d="
  M 108.80 293.70
  L 118.78 277.23
  Q 119.09 276.71 118.66 276.29
  L 118.16 275.78
  A 0.83 0.83 0.0 0 0 116.87 275.94
  L 106.90 292.50
  Q 106.53 293.12 105.93 292.71
  L 102.67 290.52
  Q 102.22 290.21 101.79 290.56
  L 100.88 291.32
  A 0.50 0.50 0.0 0 0 100.94 292.13
  Q 106.23 295.30 111.52 298.46
  Q 112.48 299.03 113.01 297.63
  Q 113.23 297.04 112.70 296.72
  L 108.98 294.45
  Q 108.51 294.16 108.80 293.70"
/>
<path stroke="#b3b6c2" vector-effect="non-scaling-stroke" d="
  M 129.66 304.32
  Q 125.44 302.75 121.32 300.87
  C 120.10 300.31 119.31 300.40 119.02 301.84
  A 0.49 0.49 0.0 0 0 119.31 302.40
  L 130.82 307.19
  Q 131.40 307.43 131.65 306.85
  L 139.98 286.78
  Q 140.19 286.28 139.69 286.08
  C 138.04 285.38 127.98 280.52 127.04 282.13
  A 0.84 0.83 26.6 0 0 127.44 283.32
  L 136.60 287.14
  Q 137.16 287.38 136.93 287.95
  L 134.36 294.28
  A 0.76 0.76 0.0 0 1 133.36 294.69
  L 124.59 291.04
  Q 123.99 290.79 123.71 291.37
  L 123.35 292.13
  Q 123.07 292.72 123.66 292.97
  L 132.71 296.78
  A 0.57 0.56 22.7 0 1 133.02 297.52
  L 130.36 304.02
  Q 130.16 304.51 129.66 304.32"
/>
<path stroke="#b2afbe" vector-effect="non-scaling-stroke" d="
  M 200.28 34.53
  A 0.50 0.50 0.0 0 1 200.84 34.10
  L 207.61 34.87
  A 0.50 0.50 0.0 0 0 208.16 34.48
  L 208.58 32.55
  A 0.50 0.50 0.0 0 0 208.16 31.95
  L 190.14 29.51
  A 0.50 0.50 0.0 0 0 189.57 29.94
  L 189.30 32.02
  A 0.50 0.50 0.0 0 0 189.72 32.58
  L 196.52 33.50
  A 0.50 0.50 0.0 0 1 196.95 34.06
  L 193.24 62.23
  A 0.50 0.50 0.0 0 0 193.63 62.78
  L 195.84 63.27
  A 0.50 0.50 0.0 0 0 196.44 62.85
  L 200.28 34.53"
/>
<path stroke="#b2afbe" vector-effect="non-scaling-stroke" d="
  M 194.74 297.83
  L 185.99 298.66
  Q 185.34 298.72 185.02 298.16
  C 184.22 296.77 182.57 291.72 180.42 292.93
  Q 179.87 293.23 180.16 293.79
  L 191.53 315.64
  Q 191.94 316.44 192.21 315.58
  L 199.44 292.02
  Q 199.58 291.57 199.16 291.37
  C 196.67 290.18 195.89 295.69 195.53 297.15
  Q 195.37 297.77 194.74 297.83"
/>
<path stroke="#b2afbe" vector-effect="non-scaling-stroke" d="
  M 167.95 305.68
  C 169.35 307.87 172.92 316.32 175.82 315.36
  Q 176.33 315.19 176.05 314.74
  L 169.42 303.52
  Q 169.13 303.04 169.17 302.48
  L 169.77 292.70
  Q 169.81 292.17 169.28 292.10
  L 168.31 291.97
  Q 167.68 291.88 167.62 292.52
  L 166.69 302.20
  Q 166.64 302.78 166.26 303.22
  L 157.50 313.45
  A 0.46 0.46 0.0 0 0 157.74 314.20
  C 160.67 314.91 165.36 307.72 167.21 305.63
  Q 167.62 305.17 167.95 305.68"
/>
<path stroke="#b2afbe" vector-effect="non-scaling-stroke" d="
  M 190.54 318.98
  A 1.41 1.41 0.0 0 0 189.13 317.57
  A 1.41 1.41 0.0 0 0 187.72 318.98
  A 1.41 1.41 0.0 0 0 189.13 320.39
  A 1.41 1.41 0.0 0 0 190.54 318.98"
/>
<path stroke="#b4a9bc" vector-effect="non-scaling-stroke" d="
  M 247.4537 46.0634
  A 0.49 0.49 0.0 0 0 247.2281 45.4082
  L 245.1428 44.3911
  A 0.49 0.49 0.0 0 0 244.4876 44.6168
  L 230.6263 73.0366
  A 0.49 0.49 0.0 0 0 230.8519 73.6918
  L 232.9372 74.7089
  A 0.49 0.49 0.0 0 0 233.5924 74.4832
  L 247.4537 46.0634"
/>
<path stroke="#b4a9bc" vector-effect="non-scaling-stroke" d="
  M 308.50 154.56
  C 310.27 152.77 317.47 147.12 316.16 144.59
  Q 315.87 144.04 315.43 144.47
  L 306.02 153.78
  Q 305.59 154.21 305.00 154.30
  L 295.75 155.75
  A 1.06 1.05 -7.4 0 0 294.87 156.88
  C 294.95 157.87 295.36 158.21 296.35 158.05
  Q 300.75 157.34 305.22 156.60
  Q 305.76 156.51 306.26 156.75
  L 318.24 162.75
  Q 318.89 163.07 318.98 162.35
  C 319.34 159.53 310.88 156.53 308.63 155.35
  Q 308.03 155.03 308.50 154.56"
/>
<path stroke="#b4a9bc" vector-effect="non-scaling-stroke" d="
  M 302.04 183.33
  L 296.68 185.33
  A 0.53 0.49 2.2 0 0 296.40 185.57
  Q 295.45 187.38 296.72 187.55
  Q 297.22 187.61 297.69 187.43
  L 319.97 178.99
  A 0.37 0.37 0.0 0 0 319.99 178.31
  L 297.16 168.19
  Q 296.50 167.89 296.50 168.61
  L 296.50 169.97
  Q 296.50 170.49 296.98 170.70
  L 302.19 172.89
  Q 302.67 173.10 302.65 173.62
  L 302.44 182.77
  Q 302.43 183.19 302.04 183.33"
/>
<path stroke="#b4a9bc" vector-effect="non-scaling-stroke" d="
  M 298.86 202.52
  L 317.98 199.89
  A 0.29 0.28 -35.9 0 0 318.07 199.35
  Q 307.85 194.55 297.76 189.76
  C 296.92 189.36 296.22 189.30 295.77 190.19
  A 1.11 1.11 0.0 0 0 296.29 191.71
  L 309.80 197.96
  A 0.39 0.38 -36.7 0 1 309.69 198.69
  L 292.86 201.08
  A 0.37 0.37 0.0 0 0 292.71 201.75
  L 306.61 211.20
  A 0.34 0.33 -27.9 0 1 306.42 211.81
  L 291.54 211.72
  Q 290.80 211.72 290.76 212.46
  L 290.71 213.48
  Q 290.68 214.10 291.30 214.11
  L 314.49 214.43
  Q 315.58 214.45 314.68 213.84
  L 298.72 203.13
  Q 297.99 202.64 298.86 202.52"
/>
<path stroke="#b4a9bc" vector-effect="non-scaling-stroke" d="
  M 228.17 288.99
  L 246.53 299.20
  A 0.27 0.27 0.0 0 0 246.90 298.85
  L 236.87 278.32
  Q 236.61 277.78 236.04 277.98
  L 235.02 278.33
  Q 234.38 278.55 234.68 279.16
  L 241.48 293.02
  A 0.34 0.34 0.0 0 1 241.01 293.47
  L 223.32 283.57
  Q 222.37 283.04 222.84 284.02
  L 232.44 304.07
  Q 232.75 304.72 233.44 304.52
  L 234.24 304.28
  Q 234.97 304.06 234.64 303.38
  L 227.90 289.24
  Q 227.63 288.69 228.17 288.99"
/>
<path stroke="#b2afbe" vector-effect="non-scaling-stroke" d="
  M 162.54 50.36
  A 0.37 0.37 0.0 0 0 162.92 50.84
  L 173.68 50.06
  A 0.37 0.37 0.0 0 0 173.98 49.53
  L 167.63 36.38
  A 0.37 0.37 0.0 0 0 166.95 36.43
  L 162.54 50.36"
/>
<path stroke="#b3b6c2" vector-effect="non-scaling-stroke" d="
  M 96.25 77.63
  A 0.34 0.34 0.0 0 0 96.78 77.83
  L 105.60 71.56
  A 0.34 0.34 0.0 0 0 105.59 70.99
  L 93.21 62.92
  A 0.34 0.34 0.0 0 0 92.70 63.29
  L 96.25 77.63"
/>
<path stroke="#b3b6c2" vector-effect="non-scaling-stroke" d="
  M 36.84 132.39
  L 48.24 137.02
  A 0.54 0.54 0.0 0 0 48.94 136.72
  L 51.47 130.50
  A 6.83 6.64 -67.9 0 0 47.88 121.68
  L 47.79 121.64
  A 6.83 6.64 -67.9 0 0 39.07 125.47
  L 36.55 131.69
  A 0.54 0.54 0.0 0 0 36.84 132.39"
/>
<path stroke="#b2afbe" vector-effect="non-scaling-stroke" d="
  M 185.7252 161.1552
  A 12.59 12.59 0.0 0 0 169.4849 153.8566
  L 168.1762 154.3537
  A 12.59 12.59 0.0 0 0 160.8775 170.5940
  L 167.5748 188.2248
  A 12.59 12.59 0.0 0 0 183.8151 195.5234
  L 185.1238 195.0263
  A 12.59 12.59 0.0 0 0 192.4225 178.7860
  L 185.7252 161.1552"
/>
<path stroke="#b2afbe" vector-effect="non-scaling-stroke" d="
  M 174.0262 161.2615
  A 1.92 1.92 0.0 0 0 171.5554 160.1355
  L 171.0309 160.3316
  A 1.92 1.92 0.0 0 0 169.9049 162.8024
  L 173.1338 171.4385
  A 1.92 1.92 0.0 0 0 175.6046 172.5645
  L 176.1291 172.3684
  A 1.92 1.92 0.0 0 0 177.2551 169.8976
  L 174.0262 161.2615"
/>
<path stroke="#b4a9bc" vector-effect="non-scaling-stroke" d="
  M 305.49 174.28
  A 0.47 0.47 0.0 0 0 304.84 174.70
  L 304.66 181.69
  A 0.47 0.47 0.0 0 0 305.29 182.15
  L 314.17 178.88
  A 0.47 0.47 0.0 0 0 314.20 178.01
  L 305.49 174.28"
/>
<path stroke="#b3b6c2" vector-effect="non-scaling-stroke" d="
  M 87.15 255.28
  A 9.33 9.33 0.0 0 0 77.82 245.95
  A 9.33 9.33 0.0 0 0 68.49 255.28
  A 9.33 9.33 0.0 0 0 77.82 264.61
  A 9.33 9.33 0.0 0 0 87.15 255.28"
/>
<path stroke="#bbafc4" vector-effect="non-scaling-stroke" d="
  M 288.04 256.68
  A 9.31 9.31 0.0 0 0 278.73 247.37
  A 9.31 9.31 0.0 0 0 269.42 256.68
  A 9.31 9.31 0.0 0 0 278.73 265.99
  A 9.31 9.31 0.0 0 0 288.04 256.68"
/>
<path stroke="#bbafc4" vector-effect="non-scaling-stroke" d="
  M 269.83 278.21
  L 264.80 272.12
  A 0.73 0.73 0.0 0 0 263.77 272.02
  L 260.48 274.75
  A 4.90 4.56 -39.6 0 0 259.61 281.38
  L 259.76 281.57
  A 4.90 4.56 -39.6 0 0 266.44 281.96
  L 269.73 279.24
  A 0.73 0.73 0.0 0 0 269.83 278.21"
/>
<path stroke="#b2afbe" vector-effect="non-scaling-stroke" d="
  M 194.46 300.59
  A 0.34 0.34 0.0 0 0 194.11 300.16
  L 186.94 300.77
  A 0.34 0.34 0.0 0 0 186.66 301.26
  L 191.03 310.08
  A 0.34 0.34 0.0 0 0 191.66 310.03
  L 194.46 300.59"
/>
</g>
<path fill="#666c84" d="
  M 180.54 1.74
  Q 179.26 3.75 177.07 2.94
  Q 170.18 0.40 177.01 3.25
  Q 178.83 4.01 180.76 3.70
  A 1.47 1.46 -5.7 0 1 182.47 5.09
  Q 182.65 10.12 180.51 14.48
  C 178.79 17.98 182.02 20.87 178.54 23.87
  Q 178.13 24.23 178.14 24.77
  L 178.32 31.65
  Q 178.33 32.18 178.04 32.63
  Q 177.17 33.99 178.33 35.36
  Q 178.63 35.73 178.51 36.19
  C 178.07 37.83 179.86 40.48 178.06 41.15
  Q 177.62 41.31 177.50 41.77
  L 177.18 43.06
  Q 177.02 43.71 176.36 43.57
  Q 175.46 43.38 174.71 43.75
  L 167.08 28.51
  A 0.44 0.44 0.0 0 0 166.27 28.57
  L 155.19 62.82
  Q 155.02 63.36 155.59 63.33
  L 157.92 63.23
  Q 158.56 63.20 158.76 62.59
  L 161.17 54.88
  A 1.29 1.28 6.4 0 1 162.29 53.99
  L 175.26 53.07
  Q 175.74 53.03 175.96 53.47
  L 180.04 61.50
  Q 179.36 63.02 180.54 64.22
  Q 180.92 64.60 180.71 65.09
  Q 177.52 72.55 177.65 80.57
  C 177.73 85.93 175.30 91.13 175.12 96.82
  Q 175.10 97.41 174.71 97.85
  L 173.14 99.66
  Q 172.79 100.07 172.72 100.60
  Q 171.88 107.35 172.86 114.01
  C 173.40 117.71 169.85 120.42 171.90 124.21
  Q 172.16 124.69 172.05 125.23
  Q 171.65 127.11 172.99 128.30
  Q 173.40 128.67 173.08 129.11
  Q 172.03 130.60 172.26 132.41
  Q 172.33 132.90 172.07 133.33
  C 171.04 135.05 168.09 146.37 169.16 147.59
  Q 169.49 147.96 169.01 148.06
  Q 167.85 148.30 167.75 149.46
  Q 156.78 154.14 155.94 165.02
  C 155.45 171.45 159.53 180.07 161.96 186.25
  Q 158.93 186.71 158.91 189.58
  Q 158.91 190.05 158.44 190.10
  C 155.25 190.44 154.46 195.49 154.54 198.05
  C 154.67 201.99 153.39 205.62 153.57 209.50
  C 153.70 212.36 153.95 215.19 151.75 217.31
  Q 151.41 217.64 151.46 218.10
  Q 151.83 221.20 150.69 224.06
  Q 150.48 224.59 150.70 225.12
  Q 151.52 227.04 150.21 228.41
  Q 149.82 228.82 149.77 229.37
  L 149.44 232.66
  Q 149.39 233.18 149.79 233.52
  Q 151.02 234.57 150.46 235.87
  Q 150.26 236.33 150.28 236.83
  Q 150.45 239.94 151.64 242.69
  Q 151.83 243.13 151.68 243.59
  L 151.23 244.94
  Q 151.06 245.45 151.42 245.84
  C 153.33 247.98 152.40 250.21 152.72 252.30
  Q 153.68 258.57 152.39 264.89
  Q 152.29 265.41 152.67 265.79
  L 153.54 266.66
  Q 153.94 267.07 153.68 267.58
  Q 152.96 268.98 153.50 270.52
  Q 153.68 271.05 153.33 271.49
  Q 152.44 272.59 152.83 274.05
  Q 152.99 274.63 153.56 274.80
  L 155.57 275.38
  A 0.93 0.93 0.0 0 1 155.92 276.98
  Q 153.66 278.93 151.36 277.51
  Q 150.94 277.25 150.64 277.64
  C 148.63 280.33 149.35 283.64 149.23 286.67
  Q 149.22 286.85 149.06 286.95
  L 148.66 287.18
  Q 148.49 287.29 148.69 287.33
  Q 150.22 287.72 150.75 289.21
  C 149.89 289.08 149.47 289.14 149.25 290.04
  Q 146.96 299.19 144.62 308.38
  Q 144.48 308.94 143.91 308.82
  L 139.75 307.92
  Q 139.02 307.77 138.88 308.49
  L 138.72 309.34
  Q 138.62 309.87 139.14 310.00
  L 151.21 313.00
  Q 151.14 314.50 147.92 314.44
  A 0.19 0.19 0.0 0 0 147.76 314.72
  L 148.85 316.68
  Q 149.17 317.25 148.51 317.25
  L 147.79 317.25
  Q 147.35 317.25 147.23 317.67
  C 146.31 320.99 147.17 324.45 147.11 327.16
  C 147.04 330.88 148.27 337.14 147.08 340.40
  Q 146.92 340.83 147.12 341.23
  C 148.52 344.03 150.36 341.98 152.27 342.39
  Q 154.54 342.87 154.81 345.16
  C 76.23 335.74 15.20 275.21 4.00 197.26
  Q 3.33 192.61 2.40 178.76
  C 1.93 171.62 2.72 164.84 3.37 157.76
  C 11.03 74.60 76.70 11.03 158.59 2.30
  C 165.62 1.55 173.20 1.72 180.54 1.74
  Z
  M 133.59 39.16
  A 0.51 0.51 0.0 0 1 134.23 39.50
  L 142.38 66.94
  A 0.51 0.51 0.0 0 0 143.03 67.28
  L 145.20 66.55
  A 0.51 0.51 0.0 0 0 145.53 65.92
  L 137.42 38.62
  A 0.51 0.51 0.0 0 1 137.76 37.99
  L 144.32 36.07
  A 0.51 0.51 0.0 0 0 144.67 35.48
  L 144.24 33.45
  A 0.51 0.51 0.0 0 0 143.60 33.06
  L 126.09 38.19
  A 0.51 0.51 0.0 0 0 125.75 38.86
  L 126.51 40.85
  A 0.51 0.51 0.0 0 0 127.14 41.16
  L 133.59 39.16
  Z
  M 97.19 81.59
  A 0.31 0.31 0.0 0 1 97.31 81.27
  L 108.64 73.16
  A 0.31 0.31 0.0 0 1 108.99 73.16
  L 116.66 78.21
  A 0.31 0.31 0.0 0 0 117.00 78.21
  L 119.47 76.51
  A 0.31 0.31 0.0 0 0 119.46 75.99
  L 88.60 56.43
  A 0.31 0.31 0.0 0 0 88.13 56.77
  L 96.39 92.43
  A 0.31 0.31 0.0 0 0 96.88 92.61
  L 99.28 90.78
  A 0.31 0.31 0.0 0 0 99.39 90.46
  L 97.19 81.59
  Z
  M 64.26 94.34
  A 0.31 0.31 0.0 0 1 64.49 93.79
  L 94.38 96.92
  A 0.31 0.31 0.0 0 0 94.62 96.38
  L 69.46 74.57
  A 0.31 0.31 0.0 0 0 69.04 74.58
  L 67.14 76.48
  A 0.31 0.31 0.0 0 0 67.16 76.94
  L 84.45 91.96
  A 0.31 0.31 0.0 0 1 84.22 92.50
  L 54.48 89.44
  A 0.31 0.31 0.0 0 0 54.24 89.98
  L 79.26 111.70
  A 0.31 0.31 0.0 0 0 79.68 111.69
  L 81.59 109.79
  A 0.31 0.31 0.0 0 0 81.58 109.33
  L 64.26 94.34
  Z
  M 75.2284 119.4981
  A 0.47 0.47 0.0 0 0 75.0710 118.8523
  L 48.0530 102.4251
  A 0.47 0.47 0.0 0 0 47.4072 102.5825
  L 46.1916 104.5819
  A 0.47 0.47 0.0 0 0 46.3490 105.2277
  L 73.3670 121.6549
  A 0.47 0.47 0.0 0 0 74.0128 121.4975
  L 75.2284 119.4981
  Z
  M 55.01 130.37
  C 56.54 117.97 41.88 112.90 36.56 123.56
  Q 35.36 125.95 32.45 133.58
  Q 32.25 134.08 32.75 134.28
  L 61.70 146.10
  Q 62.27 146.33 62.55 145.78
  L 63.43 144.03
  Q 63.77 143.35 63.06 143.06
  L 52.17 138.62
  Q 51.62 138.40 51.86 137.85
  L 52.93 135.37
  Q 53.16 134.84 53.72 134.69
  Q 59.90 132.98 66.19 131.51
  C 68.81 130.90 69.70 129.64 70.09 127.12
  Q 70.15 126.73 69.77 126.83
  L 55.58 130.85
  Q 54.93 131.04 55.01 130.37
  Z
  M 60.3361 155.0320
  A 0.59 0.59 0.0 0 0 59.8951 154.3236
  L 29.2928 147.2022
  A 0.59 0.59 0.0 0 0 28.5844 147.6432
  L 28.1039 149.7080
  A 0.59 0.59 0.0 0 0 28.5449 150.4164
  L 59.1472 157.5378
  A 0.59 0.59 0.0 0 0 59.8556 157.0968
  L 60.3361 155.0320
  Z
  M 89.54 255.27
  A 11.70 11.70 0.0 0 0 77.84 243.57
  A 11.70 11.70 0.0 0 0 66.14 255.27
  A 11.70 11.70 0.0 0 0 77.84 266.97
  A 11.70 11.70 0.0 0 0 89.54 255.27
  Z
  M 65.40 262.37
  A 1.43 1.43 0.0 0 0 63.97 260.94
  A 1.43 1.43 0.0 0 0 62.54 262.37
  A 1.43 1.43 0.0 0 0 63.97 263.80
  A 1.43 1.43 0.0 0 0 65.40 262.37
  Z
  M 94.68 275.79
  Q 94.82 280.41 93.96 284.97
  C 93.63 286.72 94.10 287.91 95.72 288.57
  Q 96.20 288.76 96.24 288.25
  L 97.28 274.70
  Q 97.32 274.10 97.71 273.64
  L 103.78 266.46
  Q 104.22 265.93 103.73 265.44
  L 103.06 264.76
  Q 102.57 264.28 102.13 264.80
  L 95.74 272.27
  Q 95.41 272.66 94.92 272.78
  L 82.02 276.09
  Q 81.56 276.21 81.75 276.64
  C 82.91 279.38 89.73 276.61 94.06 275.35
  Q 94.66 275.17 94.68 275.79
  Z
  M 69.21 267.17
  A 1.41 1.41 0.0 0 0 67.80 265.76
  A 1.41 1.41 0.0 0 0 66.39 267.17
  A 1.41 1.41 0.0 0 0 67.80 268.58
  A 1.41 1.41 0.0 0 0 69.21 267.17
  Z
  M 108.80 293.70
  L 118.78 277.23
  Q 119.09 276.71 118.66 276.29
  L 118.16 275.78
  A 0.83 0.83 0.0 0 0 116.87 275.94
  L 106.90 292.50
  Q 106.53 293.12 105.93 292.71
  L 102.67 290.52
  Q 102.22 290.21 101.79 290.56
  L 100.88 291.32
  A 0.50 0.50 0.0 0 0 100.94 292.13
  Q 106.23 295.30 111.52 298.46
  Q 112.48 299.03 113.01 297.63
  Q 113.23 297.04 112.70 296.72
  L 108.98 294.45
  Q 108.51 294.16 108.80 293.70
  Z
  M 129.66 304.32
  Q 125.44 302.75 121.32 300.87
  C 120.10 300.31 119.31 300.40 119.02 301.84
  A 0.49 0.49 0.0 0 0 119.31 302.40
  L 130.82 307.19
  Q 131.40 307.43 131.65 306.85
  L 139.98 286.78
  Q 140.19 286.28 139.69 286.08
  C 138.04 285.38 127.98 280.52 127.04 282.13
  A 0.84 0.83 26.6 0 0 127.44 283.32
  L 136.60 287.14
  Q 137.16 287.38 136.93 287.95
  L 134.36 294.28
  A 0.76 0.76 0.0 0 1 133.36 294.69
  L 124.59 291.04
  Q 123.99 290.79 123.71 291.37
  L 123.35 292.13
  Q 123.07 292.72 123.66 292.97
  L 132.71 296.78
  A 0.57 0.56 22.7 0 1 133.02 297.52
  L 130.36 304.02
  Q 130.16 304.51 129.66 304.32
  Z"
/>
<path fill="#655e7d" d="
  M 180.54 1.74
  Q 205.89 2.39 230.00 10.54
  C 230.02 11.87 223.50 9.50 222.16 9.22
  A 1.26 1.26 0.0 0 0 220.76 10.99
  Q 221.92 13.45 221.65 16.07
  Q 221.60 16.57 221.24 16.93
  Q 218.73 19.42 220.41 22.55
  Q 220.65 22.99 220.44 23.43
  Q 219.46 25.54 219.64 27.92
  Q 219.68 28.37 219.42 28.74
  L 217.71 31.12
  Q 217.45 31.49 217.90 31.50
  Q 218.07 31.50 218.25 31.49
  Q 218.54 31.47 218.39 31.73
  Q 217.82 32.72 217.75 34.04
  Q 216.82 33.55 216.19 35.71
  A 1.15 1.14 -73.4 0 0 216.95 37.12
  L 222.81 38.91
  Q 223.45 39.11 223.24 39.74
  L 214.64 66.38
  Q 214.47 66.90 214.90 67.23
  Q 216.11 68.17 217.41 67.86
  Q 217.96 67.72 218.01 67.16
  Q 218.16 65.72 218.75 64.71
  L 218.85 68.60
  Q 218.86 69.09 219.31 69.28
  C 223.79 71.14 221.38 80.03 221.73 84.07
  C 222.34 91.08 221.41 98.21 221.52 106.50
  Q 221.53 107.01 221.30 107.47
  Q 220.50 109.10 221.23 111.49
  C 222.27 114.84 218.66 116.77 220.51 120.51
  Q 220.73 120.96 220.63 121.45
  C 220.03 124.37 220.86 127.02 220.62 129.79
  Q 220.37 132.72 220.61 135.67
  Q 220.66 136.24 221.17 136.50
  L 223.22 137.55
  Q 223.66 137.78 223.97 138.17
  L 226.59 141.59
  Q 226.91 142.00 226.95 142.52
  C 227.62 150.10 227.74 157.71 228.50 165.19
  C 228.79 168.10 227.96 170.27 227.25 173.01
  C 226.55 175.72 227.14 178.72 226.26 181.61
  C 225.38 184.48 225.42 187.30 222.76 189.76
  Q 222.36 190.12 222.44 190.66
  C 222.90 194.07 221.31 196.28 221.27 199.32
  C 221.19 206.39 220.46 212.85 220.97 219.96
  Q 221.11 221.85 220.37 224.57
  C 219.35 228.36 219.64 231.96 218.51 235.80
  C 217.51 239.21 218.09 242.78 216.97 245.75
  Q 215.75 249.02 213.66 251.88
  Q 213.36 252.30 213.33 252.81
  C 213.05 257.30 212.36 265.97 209.34 268.77
  Q 208.97 269.12 208.81 269.61
  Q 207.00 275.36 208.78 281.00
  C 209.93 284.61 212.99 285.75 210.76 290.59
  C 210.59 290.96 210.79 291.98 209.78 291.75
  Q 209.37 291.65 209.24 291.25
  C 208.66 289.50 206.98 291.11 206.96 292.25
  L 203.15 289.38
  Q 202.65 289.00 202.81 289.60
  L 205.96 301.00
  L 205.50 301.36
  Q 205.28 301.53 205.03 301.40
  L 204.40 301.06
  Q 203.73 300.70 203.61 301.45
  Q 203.25 303.72 204.42 305.79
  Q 204.69 306.28 204.32 306.70
  L 203.29 307.87
  Q 202.93 308.28 202.41 308.11
  C 200.29 307.40 198.21 304.82 196.56 308.25
  Q 194.41 312.70 195.29 316.74
  C 194.15 317.15 193.20 318.34 194.09 319.39
  Q 193.45 320.30 194.24 321.36
  Q 194.53 321.76 194.61 322.24
  Q 195.52 327.44 194.81 332.59
  Q 194.50 334.86 195.01 336.83
  C 195.57 339.00 197.30 343.75 193.92 343.55
  Q 193.46 343.53 193.20 343.91
  L 192.75 344.59
  Q 192.60 344.82 192.80 345.01
  L 193.04 345.25
  Q 173.87 347.48 154.81 345.16
  Q 154.54 342.87 152.27 342.39
  C 150.36 341.98 148.52 344.03 147.12 341.23
  Q 146.92 340.83 147.08 340.40
  C 148.27 337.14 147.04 330.88 147.11 327.16
  C 147.17 324.45 146.31 320.99 147.23 317.67
  Q 147.35 317.25 147.79 317.25
  L 148.51 317.25
  Q 149.17 317.25 148.85 316.68
  L 147.76 314.72
  A 0.19 0.19 0.0 0 1 147.92 314.44
  Q 151.14 314.50 151.21 313.00
  Q 152.11 312.30 151.98 311.33
  Q 151.92 310.91 151.51 310.80
  L 147.24 309.68
  Q 146.64 309.53 146.80 308.92
  Q 149.17 300.07 151.28 291.27
  Q 151.68 289.62 150.75 289.21
  Q 150.22 287.72 148.69 287.33
  Q 148.49 287.29 148.66 287.18
  L 149.06 286.95
  Q 149.22 286.85 149.23 286.67
  C 149.35 283.64 148.63 280.33 150.64 277.64
  Q 150.94 277.25 151.36 277.51
  Q 153.66 278.93 155.92 276.98
  A 0.93 0.93 0.0 0 0 155.57 275.38
  L 153.56 274.80
  Q 152.99 274.63 152.83 274.05
  Q 152.44 272.59 153.33 271.49
  Q 153.68 271.05 153.50 270.52
  Q 152.96 268.98 153.68 267.58
  Q 153.94 267.07 153.54 266.66
  L 152.67 265.79
  Q 152.29 265.41 152.39 264.89
  Q 153.68 258.57 152.72 252.30
  C 152.40 250.21 153.33 247.98 151.42 245.84
  Q 151.06 245.45 151.23 244.94
  L 151.68 243.59
  Q 151.83 243.13 151.64 242.69
  Q 150.45 239.94 150.28 236.83
  Q 150.26 236.33 150.46 235.87
  Q 151.02 234.57 149.79 233.52
  Q 149.39 233.18 149.44 232.66
  L 149.77 229.37
  Q 149.82 228.82 150.21 228.41
  Q 151.52 227.04 150.70 225.12
  Q 150.48 224.59 150.69 224.06
  Q 151.83 221.20 151.46 218.10
  Q 151.41 217.64 151.75 217.31
  C 153.95 215.19 153.70 212.36 153.57 209.50
  C 153.39 205.62 154.67 201.99 154.54 198.05
  C 154.46 195.49 155.25 190.44 158.44 190.10
  Q 158.91 190.05 158.91 189.58
  Q 158.93 186.71 161.96 186.25
  C 167.20 206.55 196.21 204.84 197.49 184.37
  Q 197.72 180.65 195.54 174.49
  C 190.60 160.55 186.95 144.72 167.75 149.46
  Q 167.85 148.30 169.01 148.06
  Q 169.49 147.96 169.16 147.59
  C 168.09 146.37 171.04 135.05 172.07 133.33
  Q 172.33 132.90 172.26 132.41
  Q 172.03 130.60 173.08 129.11
  Q 173.40 128.67 172.99 128.30
  Q 171.65 127.11 172.05 125.23
  Q 172.16 124.69 171.90 124.21
  C 169.85 120.42 173.40 117.71 172.86 114.01
  Q 171.88 107.35 172.72 100.60
  Q 172.79 100.07 173.14 99.66
  L 174.71 97.85
  Q 175.10 97.41 175.12 96.82
  C 175.30 91.13 177.73 85.93 177.65 80.57
  Q 177.52 72.55 180.71 65.09
  Q 180.92 64.60 180.54 64.22
  Q 179.36 63.02 180.04 61.50
  Q 181.52 61.75 182.83 61.24
  Q 183.39 61.03 183.12 60.48
  L 174.71 43.75
  Q 175.46 43.38 176.36 43.57
  Q 177.02 43.71 177.18 43.06
  L 177.50 41.77
  Q 177.62 41.31 178.06 41.15
  C 179.86 40.48 178.07 37.83 178.51 36.19
  Q 178.63 35.73 178.33 35.36
  Q 177.17 33.99 178.04 32.63
  Q 178.33 32.18 178.32 31.65
  L 178.14 24.77
  Q 178.13 24.23 178.54 23.87
  C 182.02 20.87 178.79 17.98 180.51 14.48
  Q 182.65 10.12 182.47 5.09
  A 1.47 1.46 -5.7 0 0 180.76 3.70
  Q 178.83 4.01 177.01 3.25
  Q 170.18 0.40 177.07 2.94
  Q 179.26 3.75 180.54 1.74
  Z
  M 200.28 34.53
  A 0.50 0.50 0.0 0 1 200.84 34.10
  L 207.61 34.87
  A 0.50 0.50 0.0 0 0 208.16 34.48
  L 208.58 32.55
  A 0.50 0.50 0.0 0 0 208.16 31.95
  L 190.14 29.51
  A 0.50 0.50 0.0 0 0 189.57 29.94
  L 189.30 32.02
  A 0.50 0.50 0.0 0 0 189.72 32.58
  L 196.52 33.50
  A 0.50 0.50 0.0 0 1 196.95 34.06
  L 193.24 62.23
  A 0.50 0.50 0.0 0 0 193.63 62.78
  L 195.84 63.27
  A 0.50 0.50 0.0 0 0 196.44 62.85
  L 200.28 34.53
  Z
  M 194.74 297.83
  L 185.99 298.66
  Q 185.34 298.72 185.02 298.16
  C 184.22 296.77 182.57 291.72 180.42 292.93
  Q 179.87 293.23 180.16 293.79
  L 191.53 315.64
  Q 191.94 316.44 192.21 315.58
  L 199.44 292.02
  Q 199.58 291.57 199.16 291.37
  C 196.67 290.18 195.89 295.69 195.53 297.15
  Q 195.37 297.77 194.74 297.83
  Z
  M 167.95 305.68
  C 169.35 307.87 172.92 316.32 175.82 315.36
  Q 176.33 315.19 176.05 314.74
  L 169.42 303.52
  Q 169.13 303.04 169.17 302.48
  L 169.77 292.70
  Q 169.81 292.17 169.28 292.10
  L 168.31 291.97
  Q 167.68 291.88 167.62 292.52
  L 166.69 302.20
  Q 166.64 302.78 166.26 303.22
  L 157.50 313.45
  A 0.46 0.46 0.0 0 0 157.74 314.20
  C 160.67 314.91 165.36 307.72 167.21 305.63
  Q 167.62 305.17 167.95 305.68
  Z
  M 190.54 318.98
  A 1.41 1.41 0.0 0 0 189.13 317.57
  A 1.41 1.41 0.0 0 0 187.72 318.98
  A 1.41 1.41 0.0 0 0 189.13 320.39
  A 1.41 1.41 0.0 0 0 190.54 318.98
  Z"
/>
<path fill="#695379" d="
  M 230.00 10.54
  C 295.91 32.93 341.28 90.32 347.31 159.74
  Q 347.25 174.17 346.47 188.57
  Q 346.26 192.54 345.27 196.44
  Q 345.15 196.93 345.26 197.42
  Q 345.55 198.74 344.41 199.28
  Q 343.98 199.48 343.61 199.18
  L 343.14 198.80
  Q 342.74 198.47 342.27 198.71
  C 338.84 200.54 336.28 203.37 332.67 204.70
  C 328.96 206.06 327.41 209.45 323.86 210.90
  C 321.79 211.75 320.88 212.70 319.54 214.21
  Q 319.18 214.61 318.69 214.81
  Q 317.47 215.28 317.22 216.52
  Q 317.12 217.00 316.77 217.34
  L 315.17 218.85
  Q 314.79 219.21 314.27 219.24
  Q 311.94 219.41 310.93 221.48
  Q 310.64 222.07 311.30 222.01
  Q 312.02 221.95 312.74 222.02
  Q 314.41 222.21 312.74 222.44
  L 311.13 222.66
  Q 310.56 222.73 310.42 223.29
  L 309.68 226.23
  L 289.49 217.34
  Q 288.68 216.98 288.34 217.80
  C 288.00 218.60 287.57 219.05 288.67 219.54
  Q 292.59 221.31 296.65 222.94
  A 0.44 0.44 0.0 0 1 296.56 223.79
  C 294.05 224.23 284.44 225.17 283.96 228.00
  Q 282.90 228.27 282.72 229.26
  Q 282.64 229.68 282.22 229.75
  Q 281.84 229.81 281.65 229.51
  Q 281.57 229.39 281.55 229.54
  L 281.50 229.93
  Q 281.46 230.25 281.78 230.23
  Q 282.94 230.17 283.90 230.82
  Q 284.53 231.25 283.77 231.25
  L 281.56 231.25
  Q 281.14 231.25 280.85 231.54
  Q 278.31 234.02 276.89 237.25
  C 276.14 238.94 272.73 240.86 274.29 242.57
  Q 274.60 242.92 275.06 242.98
  L 277.53 243.32
  Q 278.01 243.39 277.98 243.88
  Q 277.93 244.58 277.04 245.00
  C 264.51 248.28 263.64 262.63 274.81 267.94
  Q 271.84 269.45 269.17 266.59
  Q 268.82 266.22 268.75 265.86
  Q 268.66 265.37 268.29 265.04
  Q 266.74 263.66 265.03 264.81
  Q 264.35 265.26 265.02 265.72
  Q 268.07 267.83 267.52 271.54
  Q 263.41 267.09 259.73 262.45
  C 258.95 261.48 257.97 261.37 257.44 262.63
  Q 257.24 263.12 257.57 263.52
  L 262.50 269.42
  Q 262.88 269.88 262.44 270.28
  L 257.17 275.06
  Q 256.19 273.86 257.18 272.59
  Q 257.48 272.20 257.64 271.74
  Q 258.10 270.39 257.24 269.46
  Q 256.76 268.93 256.10 269.22
  L 249.70 272.11
  Q 249.20 272.33 249.14 272.89
  L 248.71 276.89
  Q 248.66 277.35 248.85 277.77
  Q 249.33 278.81 248.46 280.00
  L 244.21 273.45
  Q 243.86 272.91 243.31 273.25
  L 242.32 273.87
  Q 241.89 274.14 242.17 274.57
  L 254.50 293.36
  Q 253.34 297.25 251.04 300.77
  Q 250.79 301.16 250.85 301.62
  L 251.03 302.93
  Q 251.10 303.46 250.58 303.55
  L 248.51 303.93
  Q 247.83 304.06 247.97 304.73
  L 248.35 306.67
  Q 248.45 307.17 248.19 307.61
  C 246.77 310.04 247.91 312.17 250.56 312.79
  Q 251.09 312.91 251.33 313.40
  C 252.62 316.02 250.85 320.19 248.86 321.80
  Q 248.45 322.13 248.40 322.64
  L 248.19 324.75
  Q 248.14 325.21 247.79 325.51
  L 244.29 328.57
  A 0.32 0.32 0.0 0 0 244.66 329.09
  C 244.73 329.05 252.53 325.35 249.97 328.17
  A 0.66 0.62 -80.3 0 1 249.73 328.35
  C 241.77 331.83 234.82 334.93 226.24 337.52
  Q 220.77 339.16 215.41 341.19
  Q 204.59 344.81 193.04 345.25
  L 192.80 345.01
  Q 192.60 344.82 192.75 344.59
  L 193.20 343.91
  Q 193.46 343.53 193.92 343.55
  C 197.30 343.75 195.57 339.00 195.01 336.83
  Q 194.50 334.86 194.81 332.59
  Q 195.52 327.44 194.61 322.24
  Q 194.53 321.76 194.24 321.36
  Q 193.45 320.30 194.09 319.39
  Q 194.84 319.75 195.46 319.76
  Q 195.98 319.77 196.27 319.34
  Q 197.35 317.77 195.29 316.74
  Q 194.41 312.70 196.56 308.25
  C 198.21 304.82 200.29 307.40 202.41 308.11
  Q 202.93 308.28 203.29 307.87
  L 204.32 306.70
  Q 204.69 306.28 204.42 305.79
  Q 203.25 303.72 203.61 301.45
  Q 203.73 300.70 204.40 301.06
  L 205.03 301.40
  Q 205.28 301.53 205.50 301.36
  L 205.96 301.00
  L 208.96 311.60
  Q 209.14 312.20 209.74 312.03
  L 210.84 311.73
  Q 211.39 311.57 211.24 311.02
  L 207.13 296.35
  A 0.38 0.38 0.0 0 1 207.74 295.96
  L 223.73 309.22
  A 0.20 0.19 -78.7 0 0 224.04 309.01
  L 217.82 286.78
  Q 217.59 285.96 216.80 286.25
  L 215.96 286.56
  Q 215.44 286.75 215.59 287.29
  L 219.71 302.03
  A 0.33 0.33 0.0 0 1 219.18 302.38
  L 206.96 292.25
  C 206.98 291.11 208.66 289.50 209.24 291.25
  Q 209.37 291.65 209.78 291.75
  C 210.79 291.98 210.59 290.96 210.76 290.59
  C 212.99 285.75 209.93 284.61 208.78 281.00
  Q 207.00 275.36 208.81 269.61
  Q 208.97 269.12 209.34 268.77
  C 212.36 265.97 213.05 257.30 213.33 252.81
  Q 213.36 252.30 213.66 251.88
  Q 215.75 249.02 216.97 245.75
  C 218.09 242.78 217.51 239.21 218.51 235.80
  C 219.64 231.96 219.35 228.36 220.37 224.57
  Q 221.11 221.85 220.97 219.96
  C 220.46 212.85 221.19 206.39 221.27 199.32
  C 221.31 196.28 222.90 194.07 222.44 190.66
  Q 222.36 190.12 222.76 189.76
  C 225.42 187.30 225.38 184.48 226.26 181.61
  C 227.14 178.72 226.55 175.72 227.25 173.01
  C 227.96 170.27 228.79 168.10 228.50 165.19
  C 227.74 157.71 227.62 150.10 226.95 142.52
  Q 226.91 142.00 226.59 141.59
  L 223.97 138.17
  Q 223.66 137.78 223.22 137.55
  L 221.17 136.50
  Q 220.66 136.24 220.61 135.67
  Q 220.37 132.72 220.62 129.79
  C 220.86 127.02 220.03 124.37 220.63 121.45
  Q 220.73 120.96 220.51 120.51
  C 218.66 116.77 222.27 114.84 221.23 111.49
  Q 220.50 109.10 221.30 107.47
  Q 221.53 107.01 221.52 106.50
  C 221.41 98.21 222.34 91.08 221.73 84.07
  C 221.38 80.03 223.79 71.14 219.31 69.28
  Q 218.86 69.09 218.85 68.60
  L 218.75 64.71
  L 226.46 40.71
  A 0.53 0.53 0.0 0 1 227.13 40.37
  L 233.54 42.41
  Q 234.13 42.60 234.30 42.00
  L 234.82 40.16
  Q 234.98 39.60 234.42 39.41
  L 217.75 34.04
  Q 217.82 32.72 218.39 31.73
  Q 218.54 31.47 218.25 31.49
  Q 218.07 31.50 217.90 31.50
  Q 217.45 31.49 217.71 31.12
  L 219.42 28.74
  Q 219.68 28.37 219.64 27.92
  Q 219.46 25.54 220.44 23.43
  Q 220.65 22.99 220.41 22.55
  Q 218.73 19.42 221.24 16.93
  Q 221.60 16.57 221.65 16.07
  Q 221.92 13.45 220.76 10.99
  A 1.26 1.26 0.0 0 1 222.16 9.22
  C 223.50 9.50 230.02 11.87 230.00 10.54
  Z
  M 247.4537 46.0634
  A 0.49 0.49 0.0 0 0 247.2281 45.4082
  L 245.1428 44.3911
  A 0.49 0.49 0.0 0 0 244.4876 44.6168
  L 230.6263 73.0366
  A 0.49 0.49 0.0 0 0 230.8519 73.6918
  L 232.9372 74.7089
  A 0.49 0.49 0.0 0 0 233.5924 74.4832
  L 247.4537 46.0634
  Z
  M 308.50 154.56
  C 310.27 152.77 317.47 147.12 316.16 144.59
  Q 315.87 144.04 315.43 144.47
  L 306.02 153.78
  Q 305.59 154.21 305.00 154.30
  L 295.75 155.75
  A 1.06 1.05 -7.4 0 0 294.87 156.88
  C 294.95 157.87 295.36 158.21 296.35 158.05
  Q 300.75 157.34 305.22 156.60
  Q 305.76 156.51 306.26 156.75
  L 318.24 162.75
  Q 318.89 163.07 318.98 162.35
  C 319.34 159.53 310.88 156.53 308.63 155.35
  Q 308.03 155.03 308.50 154.56
  Z
  M 302.04 183.33
  L 296.68 185.33
  A 0.53 0.49 2.2 0 0 296.40 185.57
  Q 295.45 187.38 296.72 187.55
  Q 297.22 187.61 297.69 187.43
  L 319.97 178.99
  A 0.37 0.37 0.0 0 0 319.99 178.31
  L 297.16 168.19
  Q 296.50 167.89 296.50 168.61
  L 296.50 169.97
  Q 296.50 170.49 296.98 170.70
  L 302.19 172.89
  Q 302.67 173.10 302.65 173.62
  L 302.44 182.77
  Q 302.43 183.19 302.04 183.33
  Z
  M 298.86 202.52
  L 317.98 199.89
  A 0.29 0.28 -35.9 0 0 318.07 199.35
  Q 307.85 194.55 297.76 189.76
  C 296.92 189.36 296.22 189.30 295.77 190.19
  A 1.11 1.11 0.0 0 0 296.29 191.71
  L 309.80 197.96
  A 0.39 0.38 -36.7 0 1 309.69 198.69
  L 292.86 201.08
  A 0.37 0.37 0.0 0 0 292.71 201.75
  L 306.61 211.20
  A 0.34 0.33 -27.9 0 1 306.42 211.81
  L 291.54 211.72
  Q 290.80 211.72 290.76 212.46
  L 290.71 213.48
  Q 290.68 214.10 291.30 214.11
  L 314.49 214.43
  Q 315.58 214.45 314.68 213.84
  L 298.72 203.13
  Q 297.99 202.64 298.86 202.52
  Z
  M 228.17 288.99
  L 246.53 299.20
  A 0.27 0.27 0.0 0 0 246.90 298.85
  L 236.87 278.32
  Q 236.61 277.78 236.04 277.98
  L 235.02 278.33
  Q 234.38 278.55 234.68 279.16
  L 241.48 293.02
  A 0.34 0.34 0.0 0 1 241.01 293.47
  L 223.32 283.57
  Q 222.37 283.04 222.84 284.02
  L 232.44 304.07
  Q 232.75 304.72 233.44 304.52
  L 234.24 304.28
  Q 234.97 304.06 234.64 303.38
  L 227.90 289.24
  Q 227.63 288.69 228.17 288.99
  Z"
/>
<path fill="#ffffff" d="
  M 174.71 43.75
  L 183.12 60.48
  Q 183.39 61.03 182.83 61.24
  Q 181.52 61.75 180.04 61.50
  L 175.96 53.47
  Q 175.74 53.03 175.26 53.07
  L 162.29 53.99
  A 1.29 1.28 6.4 0 0 161.17 54.88
  L 158.76 62.59
  Q 158.56 63.20 157.92 63.23
  L 155.59 63.33
  Q 155.02 63.36 155.19 62.82
  L 166.27 28.57
  A 0.44 0.44 0.0 0 1 167.08 28.51
  L 174.71 43.75
  Z
  M 162.54 50.36
  A 0.37 0.37 0.0 0 0 162.92 50.84
  L 173.68 50.06
  A 0.37 0.37 0.0 0 0 173.98 49.53
  L 167.63 36.38
  A 0.37 0.37 0.0 0 0 166.95 36.43
  L 162.54 50.36
  Z"
/>
<path fill="#ffffff" d="
  M 200.28 34.53
  L 196.44 62.85
  A 0.50 0.50 0.0 0 1 195.84 63.27
  L 193.63 62.78
  A 0.50 0.50 0.0 0 1 193.24 62.23
  L 196.95 34.06
  A 0.50 0.50 0.0 0 0 196.52 33.50
  L 189.72 32.58
  A 0.50 0.50 0.0 0 1 189.30 32.02
  L 189.57 29.94
  A 0.50 0.50 0.0 0 1 190.14 29.51
  L 208.16 31.95
  A 0.50 0.50 0.0 0 1 208.58 32.55
  L 208.16 34.48
  A 0.50 0.50 0.0 0 1 207.61 34.87
  L 200.84 34.10
  A 0.50 0.50 0.0 0 0 200.28 34.53
  Z"
/>
<path fill="#ffffff" d="
  M 133.59 39.16
  L 127.14 41.16
  A 0.51 0.51 0.0 0 1 126.51 40.85
  L 125.75 38.86
  A 0.51 0.51 0.0 0 1 126.09 38.19
  L 143.60 33.06
  A 0.51 0.51 0.0 0 1 144.24 33.45
  L 144.67 35.48
  A 0.51 0.51 0.0 0 1 144.32 36.07
  L 137.76 37.99
  A 0.51 0.51 0.0 0 0 137.42 38.62
  L 145.53 65.92
  A 0.51 0.51 0.0 0 1 145.20 66.55
  L 143.03 67.28
  A 0.51 0.51 0.0 0 1 142.38 66.94
  L 134.23 39.50
  A 0.51 0.51 0.0 0 0 133.59 39.16
  Z"
/>
<path fill="#ffffff" d="
  M 217.75 34.04
  L 234.42 39.41
  Q 234.98 39.60 234.82 40.16
  L 234.30 42.00
  Q 234.13 42.60 233.54 42.41
  L 227.13 40.37
  A 0.53 0.53 0.0 0 0 226.46 40.71
  L 218.75 64.71
  Q 218.16 65.72 218.01 67.16
  Q 217.96 67.72 217.41 67.86
  Q 216.11 68.17 214.90 67.23
  Q 214.47 66.90 214.64 66.38
  L 223.24 39.74
  Q 223.45 39.11 222.81 38.91
  L 216.95 37.12
  A 1.15 1.14 -73.4 0 1 216.19 35.71
  Q 216.82 33.55 217.75 34.04
  Z"
/>
<path fill="#655e7d" d="
  M 162.54 50.36
  L 166.95 36.43
  A 0.37 0.37 0.0 0 1 167.63 36.38
  L 173.98 49.53
  A 0.37 0.37 0.0 0 1 173.68 50.06
  L 162.92 50.84
  A 0.37 0.37 0.0 0 1 162.54 50.36
  Z"
/>
<rect fill="#ffffff" x="-1.65" y="-16.30" transform="translate(239.04,59.55) rotate(26.0)" width="3.30" height="32.60" rx="0.49"/>
<path fill="#ffffff" d="
  M 97.19 81.59
  L 99.39 90.46
  A 0.31 0.31 0.0 0 1 99.28 90.78
  L 96.88 92.61
  A 0.31 0.31 0.0 0 1 96.39 92.43
  L 88.13 56.77
  A 0.31 0.31 0.0 0 1 88.60 56.43
  L 119.46 75.99
  A 0.31 0.31 0.0 0 1 119.47 76.51
  L 117.00 78.21
  A 0.31 0.31 0.0 0 1 116.66 78.21
  L 108.99 73.16
  A 0.31 0.31 0.0 0 0 108.64 73.16
  L 97.31 81.27
  A 0.31 0.31 0.0 0 0 97.19 81.59
  Z
  M 96.25 77.63
  A 0.34 0.34 0.0 0 0 96.78 77.83
  L 105.60 71.56
  A 0.34 0.34 0.0 0 0 105.59 70.99
  L 93.21 62.92
  A 0.34 0.34 0.0 0 0 92.70 63.29
  L 96.25 77.63
  Z"
/>
<path fill="#666c84" d="
  M 96.25 77.63
  L 92.70 63.29
  A 0.34 0.34 0.0 0 1 93.21 62.92
  L 105.59 70.99
  A 0.34 0.34 0.0 0 1 105.60 71.56
  L 96.78 77.83
  A 0.34 0.34 0.0 0 1 96.25 77.63
  Z"
/>
<path fill="#ffffff" d="
  M 64.26 94.34
  L 81.58 109.33
  A 0.31 0.31 0.0 0 1 81.59 109.79
  L 79.68 111.69
  A 0.31 0.31 0.0 0 1 79.26 111.70
  L 54.24 89.98
  A 0.31 0.31 0.0 0 1 54.48 89.44
  L 84.22 92.50
  A 0.31 0.31 0.0 0 0 84.45 91.96
  L 67.16 76.94
  A 0.31 0.31 0.0 0 1 67.14 76.48
  L 69.04 74.58
  A 0.31 0.31 0.0 0 1 69.46 74.57
  L 94.62 96.38
  A 0.31 0.31 0.0 0 1 94.38 96.92
  L 64.49 93.79
  A 0.31 0.31 0.0 0 0 64.26 94.34
  Z"
/>
<rect fill="#ffffff" x="-16.28" y="-1.64" transform="translate(60.71,112.04) rotate(31.3)" width="32.56" height="3.28" rx="0.47"/>
<path fill="#ffffff" d="
  M 55.58 130.85
  L 69.77 126.83
  Q 70.15 126.73 70.09 127.12
  C 69.70 129.64 68.81 130.90 66.19 131.51
  Q 59.90 132.98 53.72 134.69
  Q 53.16 134.84 52.93 135.37
  L 51.86 137.85
  Q 51.62 138.40 52.17 138.62
  L 63.06 143.06
  Q 63.77 143.35 63.43 144.03
  L 62.55 145.78
  Q 62.27 146.33 61.70 146.10
  L 32.75 134.28
  Q 32.25 134.08 32.45 133.58
  Q 35.36 125.95 36.56 123.56
  C 41.88 112.90 56.54 117.97 55.01 130.37
  Q 54.93 131.04 55.58 130.85
  Z
  M 36.84 132.39
  L 48.24 137.02
  A 0.54 0.54 0.0 0 0 48.94 136.72
  L 51.47 130.50
  A 6.83 6.64 -67.9 0 0 47.88 121.68
  L 47.79 121.64
  A 6.83 6.64 -67.9 0 0 39.07 125.47
  L 36.55 131.69
  A 0.54 0.54 0.0 0 0 36.84 132.39
  Z"
/>
<path fill="#666c84" d="
  M 36.84 132.39
  A 0.54 0.54 0.0 0 1 36.55 131.69
  L 39.07 125.47
  A 6.83 6.64 -67.9 0 1 47.79 121.64
  L 47.88 121.68
  A 6.83 6.64 -67.9 0 1 51.47 130.50
  L 48.94 136.72
  A 0.54 0.54 0.0 0 1 48.24 137.02
  L 36.84 132.39
  Z"
/>
<path fill="#ffffff" d="
  M 308.63 155.35
  C 310.88 156.53 319.34 159.53 318.98 162.35
  Q 318.89 163.07 318.24 162.75
  L 306.26 156.75
  Q 305.76 156.51 305.22 156.60
  Q 300.75 157.34 296.35 158.05
  C 295.36 158.21 294.95 157.87 294.87 156.88
  A 1.06 1.05 -7.4 0 1 295.75 155.75
  L 305.00 154.30
  Q 305.59 154.21 306.02 153.78
  L 315.43 144.47
  Q 315.87 144.04 316.16 144.59
  C 317.47 147.12 310.27 152.77 308.50 154.56
  Q 308.03 155.03 308.63 155.35
  Z"
/>
<rect fill="#ffffff" x="-16.30" y="-1.65" transform="translate(44.22,152.37) rotate(13.1)" width="32.60" height="3.30" rx="0.59"/>
<path fill="#ffffff" d="
  M 161.96 186.25
  C 159.53 180.07 155.45 171.45 155.94 165.02
  Q 156.78 154.14 167.75 149.46
  C 186.95 144.72 190.60 160.55 195.54 174.49
  Q 197.72 180.65 197.49 184.37
  C 196.21 204.84 167.20 206.55 161.96 186.25
  Z
  M 185.7252 161.1552
  A 12.59 12.59 0.0 0 0 169.4849 153.8566
  L 168.1762 154.3537
  A 12.59 12.59 0.0 0 0 160.8775 170.5940
  L 167.5748 188.2248
  A 12.59 12.59 0.0 0 0 183.8151 195.5234
  L 185.1238 195.0263
  A 12.59 12.59 0.0 0 0 192.4225 178.7860
  L 185.7252 161.1552
  Z"
/>
<path fill="#655e7d" d="
  M 192.4225 178.7860
  A 12.59 12.59 0.0 0 1 185.1238 195.0263
  L 183.8151 195.5234
  A 12.59 12.59 0.0 0 1 167.5748 188.2248
  L 160.8775 170.5940
  A 12.59 12.59 0.0 0 1 168.1762 154.3537
  L 169.4849 153.8566
  A 12.59 12.59 0.0 0 1 185.7252 161.1552
  L 192.4225 178.7860
  Z
  M 174.0262 161.2615
  A 1.92 1.92 0.0 0 0 171.5554 160.1355
  L 171.0309 160.3316
  A 1.92 1.92 0.0 0 0 169.9049 162.8024
  L 173.1338 171.4385
  A 1.92 1.92 0.0 0 0 175.6046 172.5645
  L 176.1291 172.3684
  A 1.92 1.92 0.0 0 0 177.2551 169.8976
  L 174.0262 161.2615
  Z"
/>
<path fill="#775f89" d="
  M 347.31 159.74
  Q 347.95 162.68 347.99 164.00
  C 350.53 246.11 301.24 316.83 222.25 339.98
  Q 218.40 341.10 215.41 341.19
  Q 220.77 339.16 226.24 337.52
  C 234.82 334.93 241.77 331.83 249.73 328.35
  A 0.66 0.62 -80.3 0 0 249.97 328.17
  C 252.53 325.35 244.73 329.05 244.66 329.09
  A 0.32 0.32 0.0 0 1 244.29 328.57
  L 247.79 325.51
  Q 248.14 325.21 248.19 324.75
  L 248.40 322.64
  Q 248.45 322.13 248.86 321.80
  C 250.85 320.19 252.62 316.02 251.33 313.40
  Q 251.09 312.91 250.56 312.79
  C 247.91 312.17 246.77 310.04 248.19 307.61
  Q 248.45 307.17 248.35 306.67
  L 247.97 304.73
  Q 247.83 304.06 248.51 303.93
  L 250.58 303.55
  Q 251.10 303.46 251.03 302.93
  L 250.85 301.62
  Q 250.79 301.16 251.04 300.77
  Q 253.34 297.25 254.50 293.36
  Q 255.45 292.99 255.85 292.25
  Q 256.08 291.81 255.81 291.39
  L 248.46 280.00
  Q 249.33 278.81 248.85 277.77
  Q 248.66 277.35 248.71 276.89
  L 249.14 272.89
  Q 249.20 272.33 249.70 272.11
  L 256.10 269.22
  Q 256.76 268.93 257.24 269.46
  Q 258.10 270.39 257.64 271.74
  Q 257.48 272.20 257.18 272.59
  Q 256.19 273.86 257.17 275.06
  Q 255.02 280.05 258.28 283.33
  C 263.56 288.61 269.05 282.90 273.21 279.27
  Q 273.60 278.93 273.27 278.53
  L 267.52 271.54
  Q 268.07 267.83 265.02 265.72
  Q 264.35 265.26 265.03 264.81
  Q 266.74 263.66 268.29 265.04
  Q 268.66 265.37 268.75 265.86
  Q 268.82 266.22 269.17 266.59
  Q 271.84 269.45 274.81 267.94
  C 293.79 272.71 296.19 243.53 277.04 245.00
  Q 277.93 244.58 277.98 243.88
  Q 278.01 243.39 277.53 243.32
  L 275.06 242.98
  Q 274.60 242.92 274.29 242.57
  C 272.73 240.86 276.14 238.94 276.89 237.25
  Q 278.31 234.02 280.85 231.54
  Q 281.14 231.25 281.56 231.25
  L 283.77 231.25
  Q 284.53 231.25 283.90 230.82
  Q 282.94 230.17 281.78 230.23
  Q 281.46 230.25 281.50 229.93
  L 281.55 229.54
  Q 281.57 229.39 281.65 229.51
  Q 281.84 229.81 282.22 229.75
  Q 282.64 229.68 282.72 229.26
  Q 282.90 228.27 283.96 228.00
  Q 283.79 228.22 283.77 228.42
  Q 283.70 228.99 284.27 228.86
  L 296.73 225.97
  Q 297.35 225.83 297.66 226.37
  L 304.00 237.35
  Q 304.28 237.84 304.67 237.44
  C 305.77 236.31 305.70 235.28 304.87 233.91
  Q 302.05 229.33 299.28 224.72
  A 0.32 0.32 0.0 0 1 299.68 224.26
  Q 303.68 226.01 307.61 227.87
  Q 309.17 228.60 309.68 226.23
  L 310.42 223.29
  Q 310.56 222.73 311.13 222.66
  L 312.74 222.44
  Q 314.41 222.21 312.74 222.02
  Q 312.02 221.95 311.30 222.01
  Q 310.64 222.07 310.93 221.48
  Q 311.94 219.41 314.27 219.24
  Q 314.79 219.21 315.17 218.85
  L 316.77 217.34
  Q 317.12 217.00 317.22 216.52
  Q 317.47 215.28 318.69 214.81
  Q 319.18 214.61 319.54 214.21
  C 320.88 212.70 321.79 211.75 323.86 210.90
  C 327.41 209.45 328.96 206.06 332.67 204.70
  C 336.28 203.37 338.84 200.54 342.27 198.71
  Q 342.74 198.47 343.14 198.80
  L 343.61 199.18
  Q 343.98 199.48 344.41 199.28
  Q 345.55 198.74 345.26 197.42
  Q 345.15 196.93 345.27 196.44
  Q 346.26 192.54 346.47 188.57
  Q 347.25 174.17 347.31 159.74
  Z"
/>
<rect fill="#ffffff" x="-2.20" y="-6.53" transform="translate(173.58,166.35) rotate(-20.5)" width="4.40" height="13.06" rx="1.92"/>
<path fill="#ffffff" d="
  M 302.44 182.77
  L 302.65 173.62
  Q 302.67 173.10 302.19 172.89
  L 296.98 170.70
  Q 296.50 170.49 296.50 169.97
  L 296.50 168.61
  Q 296.50 167.89 297.16 168.19
  L 319.99 178.31
  A 0.37 0.37 0.0 0 1 319.97 178.99
  L 297.69 187.43
  Q 297.22 187.61 296.72 187.55
  Q 295.45 187.38 296.40 185.57
  A 0.53 0.49 2.2 0 1 296.68 185.33
  L 302.04 183.33
  Q 302.43 183.19 302.44 182.77
  Z
  M 305.49 174.28
  A 0.47 0.47 0.0 0 0 304.84 174.70
  L 304.66 181.69
  A 0.47 0.47 0.0 0 0 305.29 182.15
  L 314.17 178.88
  A 0.47 0.47 0.0 0 0 314.20 178.01
  L 305.49 174.28
  Z"
/>
<path fill="#695379" d="
  M 305.49 174.28
  L 314.20 178.01
  A 0.47 0.47 0.0 0 1 314.17 178.88
  L 305.29 182.15
  A 0.47 0.47 0.0 0 1 304.66 181.69
  L 304.84 174.70
  A 0.47 0.47 0.0 0 1 305.49 174.28
  Z"
/>
<path fill="#ffffff" d="
  M 298.72 203.13
  L 314.68 213.84
  Q 315.58 214.45 314.49 214.43
  L 291.30 214.11
  Q 290.68 214.10 290.71 213.48
  L 290.76 212.46
  Q 290.80 211.72 291.54 211.72
  L 306.42 211.81
  A 0.34 0.33 -27.9 0 0 306.61 211.20
  L 292.71 201.75
  A 0.37 0.37 0.0 0 1 292.86 201.08
  L 309.69 198.69
  A 0.39 0.38 -36.7 0 0 309.80 197.96
  L 296.29 191.71
  A 1.11 1.11 0.0 0 1 295.77 190.19
  C 296.22 189.30 296.92 189.36 297.76 189.76
  Q 307.85 194.55 318.07 199.35
  A 0.29 0.28 -35.9 0 1 317.98 199.89
  L 298.86 202.52
  Q 297.99 202.64 298.72 203.13
  Z"
/>
<path fill="#ffffff" d="
  M 309.68 226.23
  Q 309.17 228.60 307.61 227.87
  Q 303.68 226.01 299.68 224.26
  A 0.32 0.32 0.0 0 0 299.28 224.72
  Q 302.05 229.33 304.87 233.91
  C 305.70 235.28 305.77 236.31 304.67 237.44
  Q 304.28 237.84 304.00 237.35
  L 297.66 226.37
  Q 297.35 225.83 296.73 225.97
  L 284.27 228.86
  Q 283.70 228.99 283.77 228.42
  Q 283.79 228.22 283.96 228.00
  C 284.44 225.17 294.05 224.23 296.56 223.79
  A 0.44 0.44 0.0 0 0 296.65 222.94
  Q 292.59 221.31 288.67 219.54
  C 287.57 219.05 288.00 218.60 288.34 217.80
  Q 288.68 216.98 289.49 217.34
  L 309.68 226.23
  Z"
/>
<path fill="#ffffff" d="
  M 89.54 255.27
  A 11.70 11.70 0.0 0 1 77.84 266.97
  A 11.70 11.70 0.0 0 1 66.14 255.27
  A 11.70 11.70 0.0 0 1 77.84 243.57
  A 11.70 11.70 0.0 0 1 89.54 255.27
  Z
  M 87.15 255.28
  A 9.33 9.33 0.0 0 0 77.82 245.95
  A 9.33 9.33 0.0 0 0 68.49 255.28
  A 9.33 9.33 0.0 0 0 77.82 264.61
  A 9.33 9.33 0.0 0 0 87.15 255.28
  Z"
/>
<path fill="#ffffff" d="
  M 274.81 267.94
  C 263.64 262.63 264.51 248.28 277.04 245.00
  C 296.19 243.53 293.79 272.71 274.81 267.94
  Z
  M 288.04 256.68
  A 9.31 9.31 0.0 0 0 278.73 247.37
  A 9.31 9.31 0.0 0 0 269.42 256.68
  A 9.31 9.31 0.0 0 0 278.73 265.99
  A 9.31 9.31 0.0 0 0 288.04 256.68
  Z"
/>
<circle fill="#666c84" cx="77.82" cy="255.28" r="9.33"/>
<circle fill="#775f89" cx="278.73" cy="256.68" r="9.31"/>
<circle fill="#ffffff" cx="63.97" cy="262.37" r="1.43"/>
<path fill="#ffffff" d="
  M 267.52 271.54
  L 273.27 278.53
  Q 273.60 278.93 273.21 279.27
  C 269.05 282.90 263.56 288.61 258.28 283.33
  Q 255.02 280.05 257.17 275.06
  L 262.44 270.28
  Q 262.88 269.88 262.50 269.42
  L 257.57 263.52
  Q 257.24 263.12 257.44 262.63
  C 257.97 261.37 258.95 261.48 259.73 262.45
  Q 263.41 267.09 267.52 271.54
  Z
  M 269.83 278.21
  L 264.80 272.12
  A 0.73 0.73 0.0 0 0 263.77 272.02
  L 260.48 274.75
  A 4.90 4.56 -39.6 0 0 259.61 281.38
  L 259.76 281.57
  A 4.90 4.56 -39.6 0 0 266.44 281.96
  L 269.73 279.24
  A 0.73 0.73 0.0 0 0 269.83 278.21
  Z"
/>
<path fill="#ffffff" d="
  M 94.06 275.35
  C 89.73 276.61 82.91 279.38 81.75 276.64
  Q 81.56 276.21 82.02 276.09
  L 94.92 272.78
  Q 95.41 272.66 95.74 272.27
  L 102.13 264.80
  Q 102.57 264.28 103.06 264.76
  L 103.73 265.44
  Q 104.22 265.93 103.78 266.46
  L 97.71 273.64
  Q 97.32 274.10 97.28 274.70
  L 96.24 288.25
  Q 96.20 288.76 95.72 288.57
  C 94.10 287.91 93.63 286.72 93.96 284.97
  Q 94.82 280.41 94.68 275.79
  Q 94.66 275.17 94.06 275.35
  Z"
/>
<circle fill="#ffffff" cx="67.80" cy="267.17" r="1.41"/>
<path fill="#775f89" d="
  M 269.83 278.21
  A 0.73 0.73 0.0 0 1 269.73 279.24
  L 266.44 281.96
  A 4.90 4.56 -39.6 0 1 259.76 281.57
  L 259.61 281.38
  A 4.90 4.56 -39.6 0 1 260.48 274.75
  L 263.77 272.02
  A 0.73 0.73 0.0 0 1 264.80 272.12
  L 269.83 278.21
  Z"
/>
<path fill="#ffffff" d="
  M 248.46 280.00
  L 255.81 291.39
  Q 256.08 291.81 255.85 292.25
  Q 255.45 292.99 254.50 293.36
  L 242.17 274.57
  Q 241.89 274.14 242.32 273.87
  L 243.31 273.25
  Q 243.86 272.91 244.21 273.45
  L 248.46 280.00
  Z"
/>
<path fill="#ffffff" d="
  M 108.98 294.45
  L 112.70 296.72
  Q 113.23 297.04 113.01 297.63
  Q 112.48 299.03 111.52 298.46
  Q 106.23 295.30 100.94 292.13
  A 0.50 0.50 0.0 0 1 100.88 291.32
  L 101.79 290.56
  Q 102.22 290.21 102.67 290.52
  L 105.93 292.71
  Q 106.53 293.12 106.90 292.50
  L 116.87 275.94
  A 0.83 0.83 0.0 0 1 118.16 275.78
  L 118.66 276.29
  Q 119.09 276.71 118.78 277.23
  L 108.80 293.70
  Q 108.51 294.16 108.98 294.45
  Z"
/>
<path fill="#ffffff" d="
  M 227.90 289.24
  L 234.64 303.38
  Q 234.97 304.06 234.24 304.28
  L 233.44 304.52
  Q 232.75 304.72 232.44 304.07
  L 222.84 284.02
  Q 222.37 283.04 223.32 283.57
  L 241.01 293.47
  A 0.34 0.34 0.0 0 0 241.48 293.02
  L 234.68 279.16
  Q 234.38 278.55 235.02 278.33
  L 236.04 277.98
  Q 236.61 277.78 236.87 278.32
  L 246.90 298.85
  A 0.27 0.27 0.0 0 1 246.53 299.20
  L 228.17 288.99
  Q 227.63 288.69 227.90 289.24
  Z"
/>
<path fill="#ffffff" d="
  M 130.36 304.02
  L 133.02 297.52
  A 0.57 0.56 22.7 0 0 132.71 296.78
  L 123.66 292.97
  Q 123.07 292.72 123.35 292.13
  L 123.71 291.37
  Q 123.99 290.79 124.59 291.04
  L 133.36 294.69
  A 0.76 0.76 0.0 0 0 134.36 294.28
  L 136.93 287.95
  Q 137.16 287.38 136.60 287.14
  L 127.44 283.32
  A 0.84 0.83 26.6 0 1 127.04 282.13
  C 127.98 280.52 138.04 285.38 139.69 286.08
  Q 140.19 286.28 139.98 286.78
  L 131.65 306.85
  Q 131.40 307.43 130.82 307.19
  L 119.31 302.40
  A 0.49 0.49 0.0 0 1 119.02 301.84
  C 119.31 300.40 120.10 300.31 121.32 300.87
  Q 125.44 302.75 129.66 304.32
  Q 130.16 304.51 130.36 304.02
  Z"
/>
<path fill="#ffffff" d="
  M 205.96 301.00
  L 202.81 289.60
  Q 202.65 289.00 203.15 289.38
  L 206.96 292.25
  L 219.18 302.38
  A 0.33 0.33 0.0 0 0 219.71 302.03
  L 215.59 287.29
  Q 215.44 286.75 215.96 286.56
  L 216.80 286.25
  Q 217.59 285.96 217.82 286.78
  L 224.04 309.01
  A 0.20 0.19 -78.7 0 1 223.73 309.22
  L 207.74 295.96
  A 0.38 0.38 0.0 0 0 207.13 296.35
  L 211.24 311.02
  Q 211.39 311.57 210.84 311.73
  L 209.74 312.03
  Q 209.14 312.20 208.96 311.60
  L 205.96 301.00
  Z"
/>
<path fill="#ffffff" d="
  M 150.75 289.21
  Q 151.68 289.62 151.28 291.27
  Q 149.17 300.07 146.80 308.92
  Q 146.64 309.53 147.24 309.68
  L 151.51 310.80
  Q 151.92 310.91 151.98 311.33
  Q 152.11 312.30 151.21 313.00
  L 139.14 310.00
  Q 138.62 309.87 138.72 309.34
  L 138.88 308.49
  Q 139.02 307.77 139.75 307.92
  L 143.91 308.82
  Q 144.48 308.94 144.62 308.38
  Q 146.96 299.19 149.25 290.04
  C 149.47 289.14 149.89 289.08 150.75 289.21
  Z"
/>
<path fill="#ffffff" d="
  M 195.53 297.15
  C 195.89 295.69 196.67 290.18 199.16 291.37
  Q 199.58 291.57 199.44 292.02
  L 192.21 315.58
  Q 191.94 316.44 191.53 315.64
  L 180.16 293.79
  Q 179.87 293.23 180.42 292.93
  C 182.57 291.72 184.22 296.77 185.02 298.16
  Q 185.34 298.72 185.99 298.66
  L 194.74 297.83
  Q 195.37 297.77 195.53 297.15
  Z
  M 194.46 300.59
  A 0.34 0.34 0.0 0 0 194.11 300.16
  L 186.94 300.77
  A 0.34 0.34 0.0 0 0 186.66 301.26
  L 191.03 310.08
  A 0.34 0.34 0.0 0 0 191.66 310.03
  L 194.46 300.59
  Z"
/>
<path fill="#ffffff" d="
  M 167.21 305.63
  C 165.36 307.72 160.67 314.91 157.74 314.20
  A 0.46 0.46 0.0 0 1 157.50 313.45
  L 166.26 303.22
  Q 166.64 302.78 166.69 302.20
  L 167.62 292.52
  Q 167.68 291.88 168.31 291.97
  L 169.28 292.10
  Q 169.81 292.17 169.77 292.70
  L 169.17 302.48
  Q 169.13 303.04 169.42 303.52
  L 176.05 314.74
  Q 176.33 315.19 175.82 315.36
  C 172.92 316.32 169.35 307.87 167.95 305.68
  Q 167.62 305.17 167.21 305.63
  Z"
/>
<path fill="#655e7d" d="
  M 194.46 300.59
  L 191.66 310.03
  A 0.34 0.34 0.0 0 1 191.03 310.08
  L 186.66 301.26
  A 0.34 0.34 0.0 0 1 186.94 300.77
  L 194.11 300.16
  A 0.34 0.34 0.0 0 1 194.46 300.59
  Z"
/>
<path fill="#ffffff" d="
  M 195.29 316.74
  Q 197.35 317.77 196.27 319.34
  Q 195.98 319.77 195.46 319.76
  Q 194.84 319.75 194.09 319.39
  C 193.20 318.34 194.15 317.15 195.29 316.74
  Z"
/>
<circle fill="#ffffff" cx="189.13" cy="318.98" r="1.41"/>
</svg>
